<?xml version="1.0"?>
<svg xmlns:rdf="http://www.w3.org/1999/02/22-rdf-syntax-ns#" xmlns="http://www.w3.org/2000/svg" xmlns:cc="http://web.resource.org/cc/" xmlns:xlink="http://www.w3.org/1999/xlink" xmlns:dc="http://purl.org/dc/elements/1.1/" xmlns:svg="http://www.w3.org/2000/svg" space="preserve" viewBox="0 0 314.902 155.37" enable-background="new 0 0 314.902 155.37" overflow="visible">
  <g id="Calque_2">
    <path d="m268.4 0.863c-10.7 1.1-19.5 4.4-26.5 9.8-7 5.5-10.2 11.6-9.5 18.2 0.6 6.7 5 11.9 13.1 15.8 0.6 0.3 1.3 0.6 2 0.9l-55.6 9.8c-11.5 1.9-22.4 5.5-32.5 10.9l26.3 10c6.6-4.5 14-7.6 22.2-9.2l69.2-18.7 11.8-3.2c4-1.6 7.7-3.7 11-6.2 7.1-5.5 10.2-11.4 9.6-18.1-0.8-6.7-5.1-12-13.1-15.8-8.1-3.9-17.4-5.3-28-4.2zm-16 15c4.5-3.5 10.2-5.6 17.1-6.3 6.9-0.8 12.9 0.1 18.2 2.6 5.1 2.6 8 6 8.4 10.3 0.5 4.3-1.6 8.2-6.2 11.7-4.5 3.6-10.3 5.7-17.1 6.4-6.9 0.8-13-0.1-18.1-2.7-5.3-2.5-8.1-5.9-8.5-10.2-0.5-4.3 1.6-8.2 6.2-11.8zm-65.6 55.4l-16.4-6.1 16.4 6.1zm-0.9-3.8l-10.2-4 10.2 4z" fill="#666"/>
    <path d="m249.9 112.36c-0.4 0.3-0.8 0.5-1.2 0.7-7.7 4.6-11.6 10.2-11.8 16.8-0.1 3.9 1.1 7.4 3.5 10.6 0.7 0.9 1.5 1.8 2.4 2.7 1.4 1.4 3.1 2.7 5.1 4 7.5 4.9 16.5 7.4 27.2 7.7 7.6 0.1 14.5-0.9 20.6-3.2l1.5-0.6c1.9-0.7 3.7-1.6 5.4-2.7 7.7-4.5 11.6-10 11.8-16.7 0.1-6.7-3.5-12.4-11-17.3-6-4-13.2-6.4-21.3-7.3-23.3-5.5-43.8-8.9-61.6-10.4-17.8-1.4-29.6-4.3-35.4-8.8-1.8-2.5-2.6-4.8-2.2-6.9l-25.5 18.6c9.7 3.5 20.6 5.9 32.7 7.3 20.3 3.2 40.3 5.1 59.8 5.5zm40.3 28.8c-5 3-10.9 4.6-17.8 4.6-7-0.1-12.9-1.6-17.7-4.6-5-3.1-7.4-6.8-7.4-11.1s2.5-8 7.4-11.1c4.9-3 10.7-4.5 17.7-4.5 6.9 0 12.8 1.5 17.8 4.6 4.9 3 7.3 6.7 7.3 11.1-0.1 4.3-2.5 8-7.3 11zm-106.3-48.997l-11.9 6.9 11.9-6.9zm-4.7-1.3l-11.2 6.5 11.2-6.5z" fill="#666"/>
    <path d="m157.4 99.563l-18.8-2.1-115.7 23.3c-8.5 1.7-14.6 0.3-18-4.2 3.7 6.4 9.1 9 16.2 7.7l136.3-24.697z" fill="#ccc"/>
    <path d="m99.1 83.663l3.8 0.9 0.1 0.1 31.7-10.4 20.2-6.6-4.2-0.5-51.6 16.5z" fill="#333"/>
    <path d="m103 84.663l-0.1-0.1-98 32c3.4 4.5 9.5 5.9 18 4.2l115.7-23.3-3.9-23.2-31.7 10.403z" fill="#666"/>
    <path d="m134.7 74.263l3.9 23.2 18.8 2.1 25.5-18.6c0.3-1.7 1.2-3.2 2.8-4.7l-26.3-10-4.5 1.4-20.2 6.6zm18.3 5c1.2-0.8 2.5-0.9 3.9-0.6 1.4 0.4 2.4 1.2 3.2 2.5 0.7 1.2 0.8 2.5 0.5 3.9-0.4 1.4-1.2 2.4-2.4 3.2-1.3 0.7-2.6 0.8-4 0.4-1.4-0.3-2.4-1.1-3.1-2.3-0.8-1.3-0.9-2.6-0.6-4s1.2-2.4 2.5-3.1z" fill="#666"/>
    <path d="m156.9 78.663c-1.4-0.3-2.7-0.2-3.9 0.6-1.3 0.7-2.2 1.7-2.5 3.1s-0.2 2.7 0.6 4c0.7 1.2 1.7 2 3.1 2.3 1.4 0.4 2.7 0.3 4-0.4 1.2-0.8 2-1.8 2.4-3.2 0.3-1.4 0.2-2.7-0.5-3.9-0.8-1.3-1.8-2.1-3.2-2.5zm-5.5 4.3c0.1-0.1 0.2-0.3 0.2-0.4l0.1 0.1c0.6 1.1 1.5 1.8 2.8 2.2 1.1 0.2 2.3 0.1 3.4-0.5 0.6-0.4 1.1-0.9 1.5-1.4 0.2 0.7 0.2 1.4 0 2.2-0.3 1.1-0.9 1.9-1.9 2.5-1 0.5-2.1 0.7-3.1 0.4-1.1-0.2-2-0.9-2.6-1.9-0.5-1-0.6-2.1-0.4-3.2z" fill="#ccc"/>
    <path d="m151.6 82.563c0 0.1-0.1 0.3-0.2 0.4-0.2 1.1-0.1 2.2 0.4 3.2 0.6 1 1.5 1.7 2.6 1.9 1 0.3 2.1 0.1 3.1-0.4 1-0.6 1.6-1.4 1.9-2.5 0.2-0.8 0.2-1.5 0-2.2-0.4 0.5-0.9 1-1.5 1.4-1.1 0.6-2.3 0.7-3.4 0.5-1.3-0.4-2.2-1.1-2.8-2.2l-0.1-0.1z" fill="#fff"/>
    <path d="m150.7 67.163l4.2 0.5-123.1-16.7c-8.3-1.2-14.4-1.2-18.4 0.2-5 1.6-9.3 4.6-12.9 8.9l98.6 23.6 51.6-16.5z" fill="#666"/>
    <line stroke-linejoin="round" y2="76.263" y1="66.263" stroke="#0D0E0D" stroke-linecap="round" x2="185.7" x1="159.4" fill="none"/>
    <path stroke-linejoin="round" stroke="#0D0E0D" stroke-linecap="round" d="m252.4 15.863c-4.6 3.6-6.7 7.5-6.2 11.8 0.4 4.3 3.2 7.7 8.5 10.2 5.1 2.6 11.2 3.5 18.1 2.7 6.8-0.7 12.6-2.8 17.1-6.4 4.6-3.5 6.7-7.4 6.2-11.7-0.4-4.3-3.3-7.7-8.4-10.3-5.3-2.5-11.3-3.4-18.2-2.6-6.9 0.7-12.6 2.8-17.1 6.3" fill="none"/>
    <path stroke-linejoin="round" stroke="#0D0E0D" stroke-linecap="round" d="m288.9 45.163l-11.8 3.2-69.2 18.7c-8.2 1.6-15.6 4.7-22.2 9.2" fill="none"/>
    <path stroke-linejoin="round" stroke="#0D0E0D" stroke-linecap="round" d="m249.9 112.36c-0.4 0.3-0.8 0.5-1.2 0.7-7.7 4.6-11.6 10.2-11.8 16.8-0.1 3.9 1.1 7.4 3.5 10.6 0.7 0.9 1.5 1.8 2.4 2.7 1.4 1.4 3.1 2.7 5.1 4 7.5 4.9 16.5 7.4 27.2 7.7 7.6 0.1 14.5-0.9 20.6-3.2l1.5-0.6c1.9-0.7 3.7-1.6 5.4-2.7 7.7-4.5 11.6-10 11.8-16.7 0.1-6.7-3.5-12.4-11-17.3-6-4-13.2-6.4-21.3-7.3" fill="none"/>
    <path stroke-linejoin="round" stroke="#0D0E0D" stroke-linecap="round" d="m290.2 141.16c4.8-3 7.2-6.7 7.3-11 0-4.4-2.4-8.1-7.3-11.1-5-3.1-10.9-4.6-17.8-4.6-7 0-12.8 1.5-17.7 4.5-4.9 3.1-7.4 6.8-7.4 11.1s2.4 8 7.4 11.1c4.8 3 10.7 4.5 17.7 4.6 6.9 0 12.8-1.6 17.8-4.6" fill="none"/>
    <line stroke-linejoin="round" y2="97.463" y1="74.263" stroke="#0D0E0D" stroke-linecap="round" x2="138.6" x1="134.7" fill="none"/>
    <path stroke-linejoin="round" stroke="#0D0E0D" stroke-linecap="round" d="m182.9 80.963c0.3-1.7 1.2-3.2 2.8-4.7" fill="none"/>
    <path stroke-linejoin="round" stroke="#0D0E0D" stroke-linecap="round" d="m282.1 107.06c-23.3-5.5-43.8-8.9-61.6-10.4-17.8-1.4-29.6-4.3-35.4-8.8-1.8-2.5-2.6-4.8-2.2-6.9" fill="none"/>
    <line stroke-linejoin="round" y2="67.663" y1="67.663" stroke="#0D0E0D" stroke-linecap="round" x2="154.9" x1="154.9" fill="none"/>
    <line stroke-linejoin="round" y2="66.263" y1="67.663" stroke="#0D0E0D" stroke-linecap="round" x2="159.4" x1="154.9" fill="none"/>
    <path stroke-linejoin="round" stroke="#0D0E0D" stroke-linecap="round" d="m150.5 82.363c-0.3 1.4-0.2 2.7 0.6 4 0.7 1.2 1.7 2 3.1 2.3 1.4 0.4 2.7 0.3 4-0.4 1.2-0.8 2-1.8 2.4-3.2 0.3-1.4 0.2-2.7-0.5-3.9-0.8-1.3-1.8-2.1-3.2-2.5-1.4-0.3-2.7-0.2-3.9 0.6-1.3 0.7-2.2 1.7-2.5 3.1" fill="none"/>
    <path stroke-linejoin="round" stroke="#0D0E0D" stroke-linecap="round" d="m159.4 66.263c10.1-5.4 21-9 32.5-10.9l55.6-9.8" fill="none"/>
    <path stroke-linejoin="round" stroke="#0D0E0D" stroke-linecap="round" d="m277.1 48.363c4.2-0.7 8.1-1.7 11.8-3.2 4-1.6 7.7-3.7 11-6.2 7.1-5.5 10.2-11.4 9.6-18.1-0.8-6.7-5.1-12-13.1-15.8-8.1-3.9-17.4-5.3-28-4.2-10.7 1.1-19.5 4.4-26.5 9.8-7 5.5-10.2 11.6-9.5 18.2 0.6 6.7 5 11.9 13.1 15.8 0.6 0.3 1.3 0.6 2 0.9" fill="none"/>
    <path stroke-linejoin="round" stroke="#0D0E0D" stroke-linecap="round" d="m157.4 99.563c9.7 3.5 20.6 5.9 32.7 7.3 20.3 3.2 40.3 5.1 59.8 5.5" fill="none"/>
    <line stroke-linejoin="round" y2="80.963" y1="99.563" stroke="#0D0E0D" stroke-linecap="round" x2="182.9" x1="157.4" fill="none"/>
    <path stroke-linejoin="round" stroke="#0D0E0D" stroke-linecap="round" d="m138.6 97.463l-115.7 23.3c-8.5 1.7-14.6 0.3-18-4.2" fill="none"/>
    <line stroke-linejoin="round" y2="84.563" y1="116.56" stroke="#0D0E0D" stroke-linecap="round" x2="102.9" x1="4.9" fill="none"/>
    <path stroke-linejoin="round" stroke="#0D0E0D" stroke-linecap="round" d="m154.9 67.663l-123.1-16.7c-8.3-1.2-14.4-1.2-18.4 0.2-5 1.6-9.3 4.6-12.9 8.9l98.6 23.6" fill="none"/>
    <line stroke-linejoin="round" y2="97.463" y1="99.563" stroke="#0D0E0D" stroke-linecap="round" x2="138.6" x1="157.4" fill="none"/>
    <path stroke-linejoin="round" stroke="#0D0E0D" stroke-linecap="round" d="m157.4 99.563l-136.3 24.7c-7.1 1.3-12.5-1.3-16.2-7.7" fill="none"/>
    <line stroke-linejoin="round" y2="67.463" y1="63.463" stroke="#ccc" stroke-linecap="round" x2="185.9" x1="175.7" fill="none"/>
    <line stroke-linejoin="round" y2="90.863" y1="97.363" stroke="#ccc" stroke-linecap="round" x2="179.2" x1="168" fill="none"/>
    <line stroke-linejoin="round" y2="92.163" y1="99.063" stroke="#ccc" stroke-linecap="round" x2="183.9" x1="172" fill="none"/>
    <line stroke-linejoin="round" y2="71.263" y1="65.163" stroke="#ccc" stroke-linecap="round" x2="186.8" x1="170.4" fill="none"/>
  </g>
  <metadata>
    <rdf:RDF>
      <cc:Work>
        <dc:format>image/svg+xml</dc:format>
        <dc:type rdf:resource="http://purl.org/dc/dcmitype/StillImage"/>
        <cc:license rdf:resource="http://creativecommons.org/licenses/publicdomain/"/>
        <dc:publisher>
          <cc:Agent rdf:about="http://openclipart.org/">
            <dc:title>Openclipart</dc:title>
          </cc:Agent>
        </dc:publisher>
        <dc:title>Architetto -- scissors forbici</dc:title>
        <dc:date>2010-03-26T08:32:03</dc:date>
        <dc:description>Drawing by Francesco 'Architetto' Rollandin. From OCAL 0.18 release.</dc:description>
        <dc:source>http://openclipart.org/detail/34225/architetto----scissors-forbici-by-anonymous</dc:source>
        <dc:creator>
          <cc:Agent>
            <dc:title>Anonymous</dc:title>
          </cc:Agent>
        </dc:creator>
        <dc:subject>
          <rdf:Bag>
            <rdf:li>clip art</rdf:li>
            <rdf:li>clipart</rdf:li>
            <rdf:li>household</rdf:li>
            <rdf:li>office</rdf:li>
            <rdf:li>school</rdf:li>
            <rdf:li>scissors</rdf:li>
            <rdf:li>tools</rdf:li>
          </rdf:Bag>
        </dc:subject>
      </cc:Work>
      <cc:License rdf:about="http://creativecommons.org/licenses/publicdomain/">
        <cc:permits rdf:resource="http://creativecommons.org/ns#Reproduction"/>
        <cc:permits rdf:resource="http://creativecommons.org/ns#Distribution"/>
        <cc:permits rdf:resource="http://creativecommons.org/ns#DerivativeWorks"/>
      </cc:License>
    </rdf:RDF>
  </metadata>
</svg>
